<?xml version="1.0" encoding="UTF-8" standalone="no"?>
<svg
   width="341.97153mm"
   height="103.48166mm"
   viewBox="0 0 1211.7101 366.6673"
   id="svg4324"
   version="1.1"
   xmlns="http://www.w3.org/2000/svg">
  <defs>
    <style>
      /* All paths start invisible */
      .animate-path {
        fill-opacity: 0;
        stroke-dasharray: 1;
        stroke-dashoffset: 1;
        stroke-width: 1.5;
      }

      /* 1. Pen nib draws first (0s - 1.5s) */
      #nib {
        stroke: #000000;
        animation:
          draw 1.5s ease-in-out 0s forwards,
          fill-in 0.8s ease-in-out 1.2s forwards;
      }

      /* 2. Sharp Edge script writes (1s - 5s) */
      #sharp-edge {
        stroke: #000000;
        animation:
          draw 4s ease-in-out 1s forwards,
          fill-in 1s ease-in-out 4.5s forwards;
      }

      /* 3. Ampersand writes (4s - 5.5s) */
      #ampersand {
        stroke: #212121;
        animation:
          draw 1.5s ease-in-out 4s forwards,
          fill-in-dark 0.8s ease-in-out 5.2s forwards;
      }

      /* 4. Media Consultancy writes (5s - 7.5s) */
      #media-consultancy {
        stroke: #000000;
        stroke-width: 0.8;
        animation:
          draw 2.5s ease-in-out 5s forwards,
          fill-in-subtle 0.8s ease-in-out 7s forwards;
      }

      @keyframes draw {
        to {
          stroke-dashoffset: 0;
        }
      }

      @keyframes fill-in {
        to {
          fill: #000000;
          fill-opacity: 1;
          stroke-width: 0;
        }
      }

      @keyframes fill-in-dark {
        to {
          fill: #212121;
          fill-opacity: 0.85;
          stroke-width: 0;
        }
      }

      @keyframes fill-in-subtle {
        to {
          fill: #000000;
          fill-opacity: 0.85;
          stroke-width: 0;
        }
      }
    </style>
  </defs>
  <g
     id="layer1"
     transform="translate(213.03736,16.159549)">
    <path
       class="animate-path"
       pathLength="1"
       style="font-size:30px;line-height:125%;font-family:Mangal;-inkscape-font-specification:'Mangal, Normal';letter-spacing:0px;word-spacing:0px"
       d="m -6.5440052,336.93327 h -2.8271485 v -18.89649 l -6.3427733,18.89649 h -2.651367 l -6.328126,-18.89649 v 18.89649 h -2.797851 v -22.23633 h 4.453125 l 5.991211,18.53027 6.064453,-18.53027 h 4.4384768 z m 36.5771482,0 H 13.421815 v -22.23633 h 16.098633 v 2.65137 H 16.366151 v 6.75293 h 12.304687 v 2.63672 H 16.366151 v 7.54394 H 30.033143 Z M 67.56244,325.69792 q 0,11.23535 -11.337891,11.23535 h -7.060547 v -22.23633 h 7.060547 q 11.337891,0 11.337891,11.00098 z m -3.032227,0 q 0,-1.94825 -0.395508,-3.50098 -0.380859,-1.55273 -1.333007,-2.62207 -0.952149,-1.08398 -2.563477,-1.65527 -1.59668,-0.57129 -4.042969,-0.57129 h -4.086914 v 16.93359 h 4.086914 q 2.431641,0 4.028321,-0.58594 1.611328,-0.58593 2.563476,-1.68457 0.952149,-1.09863 1.347656,-2.69531 0.395508,-1.59668 0.395508,-3.61816 z m 25.415039,11.23535 h -2.92969 v -22.23633 h 2.92969 z m 31.831048,-9.11133 -3.92578,-10.29785 -3.7207,10.29785 z m 6.76758,9.11133 h -3.33984 l -2.57813,-6.75293 h -9.3164 l -2.46094,6.75293 h -3.09082 l 8.52539,-22.23633 h 3.19336 z m 155.81543,-15.49805 h -3.01758 q -0.0732,-1.05469 -0.55664,-1.9043 -0.48339,-0.86425 -1.28906,-1.45019 -0.79101,-0.60059 -1.86035,-0.92285 -1.05469,-0.32227 -2.28516,-0.32227 -1.68457,0 -3.04687,0.58594 -1.34766,0.58594 -2.29981,1.72852 -0.95214,1.14257 -1.46484,2.8125 -0.5127,1.66992 -0.5127,3.83789 0,2.15332 0.5127,3.83789 0.5127,1.66992 1.46484,2.8125 0.95215,1.14257 2.28516,1.74316 1.34766,0.60059 3.00293,0.60059 1.28906,0 2.3584,-0.32227 1.06933,-0.32226 1.8457,-0.95215 0.79102,-0.62988 1.25977,-1.53808 0.4834,-0.92285 0.58593,-2.10938 h 3.01758 q -0.16113,1.77246 -0.89355,3.16406 -0.73242,1.37696 -1.91895,2.32911 -1.18652,0.95214 -2.7832,1.45019 -1.58203,0.49805 -3.42773,0.49805 -2.37305,0 -4.292,-0.80567 -1.91894,-0.82031 -3.2666,-2.31445 -1.34765,-1.50879 -2.08008,-3.63281 -0.71777,-2.12403 -0.71777,-4.76074 0,-2.63672 0.73242,-4.76075 0.73242,-2.12402 2.08008,-3.63281 1.34766,-1.50879 3.2666,-2.31445 1.91895,-0.82031 4.27735,-0.82031 1.75781,0 3.32519,0.51269 1.58203,0.5127 2.79785,1.4502 1.21582,0.9375 1.97754,2.2705 0.76172,1.31836 0.92285,2.92969 z m 28.71094,-7.11914 q 2.31445,0 4.2627,0.83496 1.94824,0.82031 3.36914,2.3291 1.42089,1.49414 2.21191,3.61817 0.79102,2.10937 0.79102,4.70215 0,2.54882 -0.79102,4.67285 -0.77637,2.10937 -2.18262,3.63281 -1.40625,1.52344 -3.36914,2.37305 -1.94824,0.83496 -4.29199,0.83496 -2.34375,0 -4.30664,-0.83496 -1.94824,-0.83496 -3.36914,-2.34375 -1.40625,-1.52344 -2.19727,-3.63282 -0.77636,-2.12402 -0.77636,-4.70214 0,-2.60743 0.79101,-4.7168 0.80567,-2.12402 2.22656,-3.61816 1.4209,-1.50879 3.36914,-2.32911 1.94825,-0.82031 4.2627,-0.82031 z m -0.0147,20.47852 q 1.66992,0 3.06153,-0.61524 1.40625,-0.61523 2.41699,-1.77246 1.01074,-1.15723 1.56738,-2.82715 0.57129,-1.66992 0.57129,-3.77929 0,-2.12403 -0.57129,-3.79395 -0.57129,-1.66992 -1.58203,-2.8125 -1.01074,-1.14258 -2.40234,-1.74316 -1.37696,-0.60059 -3.00293,-0.60059 -1.65528,0 -3.06153,0.61524 -1.40625,0.60058 -2.43164,1.75781 -1.01074,1.15722 -1.58203,2.8125 -0.57129,1.65527 -0.57129,3.76465 0,2.10937 0.55664,3.77929 0.57129,1.66992 1.58203,2.82715 1.01075,1.15723 2.40235,1.77246 1.3916,0.61524 3.04687,0.61524 z m 47.05078,2.13867 h -3.01758 l -11.6748,-17.53418 v 17.53418 h -2.79785 v -22.23633 h 3.04687 l 11.63086,17.56348 v -17.56348 h 2.8125 z m 28.35938,0.38086 q -2.3584,0 -4.11621,-0.55664 -1.75782,-0.55664 -2.92969,-1.55274 -1.17188,-0.99609 -1.78711,-2.37304 -0.60059,-1.39161 -0.65918,-3.06153 h 2.8418 q 0.11718,1.27442 0.67383,2.19727 0.55664,0.92285 1.42089,1.52344 0.86426,0.60058 1.99219,0.89355 1.14258,0.29297 2.41699,0.29297 1.24512,0 2.25586,-0.26367 1.02539,-0.26367 1.74317,-0.74707 0.73242,-0.49805 1.12793,-1.20117 0.3955,-0.70313 0.3955,-1.58204 0,-0.92285 -0.36621,-1.55273 -0.35156,-0.62988 -1.17187,-1.09863 -0.82031,-0.4834 -2.15332,-0.86426 -1.31836,-0.38086 -3.25195,-0.77637 -1.875,-0.4248 -3.22266,-0.9668 -1.34766,-0.54199 -2.22656,-1.27441 -0.87891,-0.74707 -1.30371,-1.69922 -0.41016,-0.95215 -0.41016,-2.18262 0,-1.333 0.57129,-2.46093 0.57129,-1.12793 1.61133,-1.94824 1.05468,-0.82032 2.50488,-1.27442 1.46484,-0.46875 3.2373,-0.46875 1.86036,0 3.39844,0.4541 1.55274,0.4541 2.66602,1.31836 1.11328,0.86426 1.74316,2.10938 0.64453,1.23047 0.68848,2.79785 h -2.8418 q -0.46875,-4.02832 -5.52246,-4.02832 -2.49023,0 -3.82324,0.92285 -1.33301,0.9082 -1.33301,2.49023 0,0.68848 0.24902,1.20118 0.24903,0.49804 0.83496,0.8789 0.60059,0.38086 1.56739,0.68848 0.98144,0.30762 2.44629,0.61523 0.99609,0.20508 2.05078,0.4541 1.05468,0.23438 2.05078,0.57129 0.99609,0.33692 1.875,0.83496 0.89355,0.4834 1.55273,1.17188 0.67383,0.68848 1.05469,1.64062 0.39551,0.9375 0.39551,2.19727 0,1.46484 -0.61524,2.69531 -0.61523,1.23047 -1.71386,2.12403 -1.09864,0.8789 -2.60743,1.37695 -1.50878,0.4834 -3.31054,0.4834 z m 36.0791,0 q -2.06543,0 -3.51563,-0.41016 -1.43554,-0.4248 -2.41699,-1.12793 -0.96679,-0.71777 -1.53808,-1.66992 -0.55664,-0.9668 -0.84961,-2.05078 -0.27832,-1.08399 -0.35157,-2.24121 -0.0732,-1.15723 -0.0732,-2.27051 v -12.84668 h 2.94434 v 12.80273 q 0,2.24122 0.38086,3.64747 0.39551,1.3916 1.12793,2.18261 0.74707,0.77637 1.8164,1.06934 1.08399,0.27832 2.47559,0.27832 1.4209,0 2.49023,-0.27832 1.08399,-0.29297 1.80176,-1.08399 0.73242,-0.79101 1.09863,-2.18261 0.38086,-1.40625 0.38086,-3.63282 v -12.80273 h 2.97364 v 12.84668 q 0,2.2998 -0.39551,4.11621 -0.39551,1.81641 -1.3916,3.07617 -0.98145,1.24512 -2.68067,1.91895 -1.68457,0.65918 -4.27734,0.65918 z m 42.48047,-0.38086 H 453.2411 v -22.23633 h 2.94433 v 19.58496 h 10.83985 z m 34.33594,-19.58496 h -7.35352 v 19.58496 h -2.95898 v -19.58496 h -7.30957 v -2.65137 h 17.62207 z m 29.67773,10.47363 -3.92578,-10.29785 -3.7207,10.29785 z m 6.76758,9.11133 h -3.33985 l -2.57812,-6.75293 h -9.31641 l -2.46093,6.75293 h -3.09082 l 8.52539,-22.23633 h 3.19336 z m 34.93652,0 h -3.01758 l -11.6748,-17.53418 v 17.53418 h -2.79785 v -22.23633 h 3.04687 l 11.63086,17.56348 v -17.56348 h 2.8125 z m 38.32031,-15.49805 h -3.01757 q -0.0733,-1.05469 -0.55664,-1.9043 -0.4834,-0.86425 -1.28907,-1.45019 -0.79101,-0.60059 -1.86035,-0.92285 -1.05469,-0.32227 -2.28515,-0.32227 -1.68458,0 -3.04688,0.58594 -1.34766,0.58594 -2.2998,1.72852 -0.95215,1.14257 -1.46485,2.8125 -0.51269,1.66992 -0.51269,3.83789 0,2.15332 0.51269,3.83789 0.5127,1.66992 1.46485,2.8125 0.95214,1.14257 2.28515,1.74316 1.34766,0.60059 3.00293,0.60059 1.28906,0 2.3584,-0.32227 1.06934,-0.32226 1.8457,-0.95215 0.79102,-0.62988 1.25977,-1.53808 0.4834,-0.92285 0.58594,-2.10938 h 3.01757 q -0.16113,1.77246 -0.89355,3.16406 -0.73242,1.37696 -1.91895,2.32911 -1.18652,0.95214 -2.7832,1.45019 -1.58203,0.49805 -3.42773,0.49805 -2.37305,0 -4.292,-0.80567 -1.91894,-0.82031 -3.2666,-2.31445 -1.34765,-1.50879 -2.08008,-3.63281 -0.71777,-2.12403 -0.71777,-4.76074 0,-2.63672 0.73242,-4.76075 0.73243,-2.12402 2.08008,-3.63281 1.34766,-1.50879 3.2666,-2.31445 1.91895,-0.82031 4.27735,-0.82031 1.75781,0 3.32519,0.51269 1.58203,0.5127 2.79785,1.4502 1.21582,0.9375 1.97754,2.2705 0.76172,1.31836 0.92285,2.92969 z m 37.17774,-6.73828 -8.74512,12.80273 v 9.4336 h -2.94433 v -9.4336 l -8.75977,-12.80273 h 3.58887 l 6.65039,10.20996 6.62109,-10.20996 z"
       id="media-consultancy"
       aria-label="M E D I A         C O N S U L T A N C Y" />
    <path
       class="animate-path"
       pathLength="1"
       style="fill-opacity:0"
       d="m 886.09337,254.34044 c 0.26181,-1.1 3.17647,-13.925 6.47703,-28.5 3.30056,-14.575 6.97277,-30.775 8.16046,-36 1.57976,-6.9498 2.818,-10.13029 4.6127,-11.84795 4.46266,-4.27111 5.8226,-12.57501 2.77257,-16.92954 -3.83768,-5.47905 -9.4433,-0.30732 -9.4433,8.71235 0,3.11583 0.41657,6.09264 0.92571,6.61514 0.57049,0.58545 -2.40345,15.65889 -7.75,39.28101 -7.38728,32.63846 -8.78223,37.76207 -9.39295,34.5 -0.39448,-2.10705 -1.66256,-20.70601 -2.81796,-41.33101 -1.15539,-20.625 -2.66984,-46.70725 -3.36543,-57.96056 l -1.26471,-20.46056 3.20556,-4.1995 c 8.37036,-10.96577 16.03857,-43.094768 15.30724,-64.135696 -0.30617,-8.808851 -0.15894,-9.922306 1.23905,-9.370216 0.87258,0.344598 16.45537,6.904419 34.62843,14.577381 l 33.04192,13.950838 -3.31149,4.814063 c -9.72612,14.13929 -18.63964,53.81872 -15.86225,70.61241 l 0.97805,5.91384 -27.53059,44.46343 c -15.14182,24.45489 -28.33056,45.55044 -29.30832,46.879 -1.52427,2.07117 -1.70987,2.13042 -1.30172,0.41557 z M 928.67283,59.916247 C 900.14766,47.961892 893.11272,44.646821 892.86688,43.043425 c -0.16828,-1.097498 1.06922,-14.233841 2.75,-29.191877 1.68077,-14.9580334 3.05595,-27.829726 3.05595,-28.603761 0,-1.191017 7.68541,-1.407336 50,-1.407336 27.5,0 50,0.357174 50,0.793721 0,0.436547 -7.14541,20.7990463 -15.8787,45.25 -9.74291,27.277676 -16.40858,44.543834 -17.25,44.682862 -0.75421,0.124622 -17.3463,-6.468233 -36.8713,-14.650787 z"
       id="nib" />
    <path
       class="animate-path"
       pathLength="1"
       style="font-size:138.75px;line-height:119%;font-family:Halimun;-inkscape-font-specification:'Halimun, Normal';letter-spacing:0px;word-spacing:0px"
       d="m -119.25938,262.98049 q -1.9425,5.68875 -6.66,9.99 -4.57875,4.30125 -10.96125,6.79875 -6.3825,2.35875 -13.32,3.46875 -6.79875,1.11 -14.29125,1.11 -3.33,0 -6.3825,-0.13875 -6.9375,-0.41625 -13.73625,-1.9425 -6.66,-1.52625 -12.765,-4.02375 -6.105,-2.63625 -10.2675,-6.79875 -4.1625,-4.1625 -5.13375,-9.29625 -1.80375,-9.85125 8.88,-20.11875 10.68375,-10.2675 33.5775,-20.67375 1.9425,-0.97125 3.6075,0.2775 1.80375,1.11 1.52625,3.33 -0.13875,2.08125 -2.08125,2.91375 -10.545,4.85625 -18.315,9.57375 -7.63125,4.7175 -11.51625,8.18625 -3.74625,3.33 -5.96625,6.66 -2.08125,3.19125 -2.4975,5.13375 -0.2775,1.80375 0,3.33 1.11,6.105 11.1,10.68375 9.99,4.57875 24.1425,5.41125 9.57375,0.69375 18.5925,-0.69375 9.01875,-1.3875 16.23375,-5.2725 7.35375,-4.02375 9.29625,-10.12875 1.24875,-3.74625 1.3875,-7.4925 0.13875,-3.885 -1.11,-7.90875 -1.24875,-4.02375 -2.63625,-7.4925 -1.3875,-3.46875 -4.57875,-7.77 -3.0525,-4.44 -5.41125,-7.4925 -2.22,-3.0525 -6.66,-7.77 -4.30125,-4.7175 -6.79875,-7.35375 -2.4975,-2.63625 -7.4925,-7.4925 -4.57875,-4.85625 -7.07625,-7.215 -2.35875,-2.4975 -6.66,-7.07625 -4.1625,-4.7175 -6.3825,-7.4925 -2.22,-2.775 -5.41125,-7.215 -3.0525,-4.44 -4.57875,-7.4925 -1.3875,-3.19125 -2.91375,-7.35375 -1.3875,-4.30125 -1.52625,-7.77 -0.13875,-3.46875 0.555,-7.4925 0.8325,-4.02375 2.63625,-7.77 5.13375,-10.2675 17.4825,-13.875 12.34875,-3.74625 30.38625,-0.41625 16.65,3.19125 33.43875,11.1 16.788748,7.90875 28.443748,18.87 11.79375,10.8225 12.62625,20.8125 1.24875,13.875 -17.62125,21.09 -21.089998,5.8275 -42.734998,2.63625 -1.3875,-0.2775 -2.35875,-1.3875 -0.8325,-1.24875 -0.69375,-2.63625 0.2775,-1.52625 1.3875,-2.35875 1.24875,-0.97125 2.63625,-0.8325 19.84125,2.91375 39.127498,-2.22 13.73625,-5.2725 13.0425,-13.5975 -0.69375,-7.63125 -11.1,-16.78875 -10.2675,-9.29625 -26.084998,-16.9275 -15.8175,-7.63125 -31.49625,-10.545 -5.2725,-0.97125 -10.40625,-1.24875 -5.13375,-0.41625 -11.23875,0.2775 -5.96625,0.555 -10.96125,3.46875 -4.85625,2.775 -7.35375,7.77 -1.52625,3.0525 -2.08125,6.3825 -0.41625,3.19125 -0.2775,6.105 0.13875,2.91375 1.52625,6.52125 1.52625,3.6075 2.775,6.3825 1.3875,2.63625 4.30125,6.52125 2.91375,3.885 4.85625,6.3825 2.08125,2.4975 5.96625,6.79875 4.02375,4.30125 6.24375,6.66 2.22,2.22 6.79875,6.79875 4.7175,4.7175 7.07625,7.215 2.35875,2.4975 6.66,7.07625 4.30125,4.57875 6.52125,7.4925 2.22,2.775 5.41125,7.215 3.33,4.44 4.85625,7.77 1.665,3.19125 3.46875,7.4925 1.80375,4.1625 2.22,7.90875 0.41625,3.6075 0.13875,7.77 -0.13875,4.1625 -1.3875,8.18625 z m 141.663534,-14.985 q 1.52625,0 2.4975,1.11 0.97125,1.11 0.8325,2.63625 0,1.52625 -1.11,2.4975 -1.665,1.52625 -4.02375,3.46875 -2.35875,1.80375 -9.01875,6.3825 -6.6599999,4.44 -13.0424999,7.63125 -6.24375,3.0525 -14.5687501,5.13375 -8.18625,2.08125 -14.985,1.11 -6.3825,-1.11 -11.655,-4.7175 -5.2725,-3.74625 -8.325,-9.29625 -2.35875,-4.30125 -7.07625,-4.7175 -1.80375,-0.13875 -4.02375,0.69375 -2.22,0.8325 -5.68875,3.0525 -3.33,2.08125 -7.90875,7.07625 -4.57875,4.85625 -9.57375,12.21 -1.52625,2.22 -4.1625,1.24875 -2.63625,-0.97125 -2.35875,-3.74625 0.8325,-10.545 4.1625,-26.9175 -1.3875,-2.08125 0.13875,-4.1625 l 0.97125,-1.3875 q 3.6075,-17.76 8.46375,-34.54875 3.6075,-13.18125 7.215,-22.89375 3.6075,-9.7125 5.96625,-14.43 2.4975,-4.85625 4.995,-7.90875 2.63625,-3.0525 3.6075,-3.6075 1.11,-0.555 2.35875,-0.97125 2.35875,-0.69375 4.57875,0.13875 2.22,0.69375 3.74625,2.63625 2.775,3.33 2.91375,9.01875 0.2775,5.55 -1.52625,11.79375 -1.665,6.24375 -5.13375,13.875 -3.46875,7.63125 -7.215,14.29125 -3.74625,6.66 -8.325,13.875 -4.57875,7.215 -7.77,11.79375 -3.19125,4.57875 -6.24375,8.88 0,0 -0.2775,0.41625 l -0.8325,1.24875 q -1.9425,10.2675 -2.22,11.79375 -0.13875,0.97125 0.69375,1.3875 0.97125,0.41625 1.665,-0.2775 12.07125,-12.62625 22.33875,-11.79375 4.02375,0.2775 7.35375,2.4975 3.46875,2.22 5.41125,5.8275 2.35875,4.1625 6.24375,6.9375 3.885,2.775 8.6025,3.46875 5.8275,0.8325 13.18125,-1.11 7.4925001,-2.08125 13.1812501,-4.995 5.68875,-3.0525 11.79375,-7.215 6.1049999,-4.1625 8.0474999,-5.8275 2.08125,-1.665 3.46875,-2.775 1.11,-0.97125 2.63625,-0.8325 z m -74.23125,-78.11625 q -2.63625,0 -9.29625,14.985 -6.52125,14.84625 -11.3775,30.2475 -4.7175,15.40125 -3.0525,16.3725 0.69375,0.41625 2.775,-2.35875 2.08125,-2.775 4.7175,-7.4925 2.63625,-4.85625 5.55,-10.96125 3.0525,-6.105 5.55,-12.34875 2.63625,-6.3825 4.44,-12.21 1.80375,-5.8275 2.22,-9.85125 0.41625,-4.1625 -0.97125,-5.96625 -0.41625,-0.41625 -0.555,-0.41625 z m 183.427456,77.7 q 1.52625,0 2.4975,1.11 0.97125,1.11 0.8325,2.63625 0,1.52625 -1.11,2.4975 -1.24875,1.11 -3.33,2.91375 -1.9425,1.665 -7.215,5.55 -5.2725,3.885 -10.68375,7.07625 -5.41125,3.19125 -12.764999,6.3825 -7.35375,3.0525 -14.1525,4.30125 -6.79875,1.24875 -14.29125,0.2775 -7.4925,-1.11 -13.73625,-5.13375 -5.8275,-3.74625 -9.29625,-9.7125 -0.97125,-1.665 -3.0525,-1.80375 -1.9425,-0.13875 -3.0525,1.52625 -4.85625,7.4925 -10.68375,12.62625 -5.68875,5.13375 -10.545,5.2725 h -0.13875 q -2.4975,-0.13875 -4.57875,-1.52625 -2.22,-1.52625 -3.19125,-3.885 -4.1624997,-10.40625 1.24875,-20.2575 4.57875,-9.57375 12.765,-16.23375 8.325,-6.79875 18.73125,-9.29625 2.08125,-0.555 3.46875,0.97125 1.52625,1.52625 0.8325,3.6075 -0.555,1.9425 -2.63625,2.4975 -8.74125,2.08125 -15.67875,7.77 -6.9375,5.55 -10.8225,13.73625 -3.885,6.66 -1.3875,13.875 0.8325,1.3875 1.24875,1.3875 2.35875,1.52625 9.1575,-8.6025 6.79875,-10.12875 12.21,-21.9225 1.11,-2.4975 3.885,-2.08125 2.63625,0.41625 3.0525,3.0525 0.13875,0.69375 0.2775,1.9425 0.2775,1.11 1.24875,4.30125 0.97125,3.0525 2.22,5.8275 1.24875,2.775 3.6075,5.96625 2.35875,3.0525 5.13375,4.85625 5.2725,3.46875 11.79375,4.1625 6.66,0.69375 12.62625,-0.69375 6.105,-1.3875 12.765,-4.30125 6.659999,-3.0525 11.516249,-6.105 4.85625,-3.0525 9.57375,-6.52125 4.7175,-3.46875 6.3825,-4.85625 1.80375,-1.52625 2.63625,-2.35875 1.11,-0.97125 2.63625,-0.8325 z m 115.71758,-2.775 q 1.52625,0 2.4975,1.11 1.11,1.11 1.11,2.63625 0,1.3875 -1.11,2.4975 -13.45875,13.0425 -33.16125,20.11875 -19.7025,6.9375 -36.075,6.9375 -7.90875,0.41625 -15.2625,-2.91375 -3.19125,-1.80375 -5.13375,-4.02375 -1.9425,-2.22 -2.4975,-4.7175 -0.555,-2.63625 -0.69375,-4.7175 0,-2.08125 0.97125,-4.7175 0.97125,-2.775 1.52625,-4.1625 0.69375,-1.52625 1.80375,-3.74625 0.41625,-0.8325 -0.69375,-0.97125 -0.555,0 -1.52625,0.555 -7.63125,4.1625 -16.3725,3.74625 -3.885,0.13875 -7.63125,-1.52625 -1.3875,0.41625 -2.775,-0.2775 -2.22,-1.11 -1.9425,-3.6075 -2.08125,-2.4975 -2.91375,-5.68875 -1.665,-5.68875 0.2775,-11.23875 1.9425,-5.55 6.79875,-9.1575 5.8275,-3.46875 9.1575,-0.2775 4.57875,4.30125 -3.0525,21.50625 -0.2775,0.69375 0.41625,1.9425 0.69375,1.11 1.665,1.11 8.0475,0 15.12375,-4.02375 2.08125,-1.24875 3.33,-1.665 1.24875,-0.555 3.33,-0.41625 2.08125,0 3.885,1.3875 1.80375,1.3875 1.9425,3.6075 0.13875,2.22 -0.555,3.885 -0.555,1.52625 -1.9425,4.30125 -3.46875,6.3825 -3.46875,10.2675 0.13875,3.74625 4.7175,6.3825 2.775,1.665 9.01875,1.9425 6.24375,0.2775 14.7075,-1.11 8.46375,-1.3875 17.4825,-4.1625 9.01875,-2.775 18.315,-7.90875 9.29625,-5.2725 16.095,-11.9325 1.11,-0.97125 2.63625,-0.97125 z m -113.08125,-6.52125 q 2.4975,-5.2725 3.885,-10.96125 -5.13375,4.44 -3.885,10.96125 z m 221.58371,6.79875 q 1.52625,0 2.4975,1.11 1.11,1.11 1.11,2.63625 0,1.3875 -1.11,2.4975 -4.995,4.57875 -11.23875,8.46375 -6.24375,3.74625 -12.07125,6.24375 -5.8275,2.4975 -13.5975,4.57875 -7.63125,1.9425 -13.18125,3.0525 -5.41125,0.97125 -13.45875,1.80375 -7.90875,0.8325 -12.07125,1.11 -4.02375,0.2775 -11.1,0.69375 -6.52125,0.41625 -9.1575,0.555 -1.3875,0.2775 -2.775,0.2775 -1.52625,0 -2.63625,-0.97125 -0.97125,-0.97125 -1.11,-2.4975 -0.13875,-1.3875 0.8325,-2.4975 0.97125,-1.11 2.4975,-1.24875 1.11,-0.13875 2.35875,-0.2775 4.995,-0.69375 8.88,-4.02375 3.885,-3.33 5.2725,-8.18625 0.97125,-5.8275 -6.24375,-8.74125 -2.775,-1.11 -7.4925,3.19125 -9.85125,10.40625 -15.8175,23.31 -0.13875,0.2775 -0.13875,0.69375 -11.51625,66.3225 -21.3675,69.93 -0.8325,0.2775 -1.80375,0.2775 -2.22,0 -3.885,-1.52625 -3.19125,-3.33 -0.555,-15.40125 2.63625,-12.07125 8.325,-27.05625 5.55,-14.84625 12.07125,-28.305 2.91375,-16.3725 5.41125,-33.5775 0.13875,-2.22 2.08125,-3.0525 2.08125,-0.8325 3.74625,0.555 1.665,1.3875 1.3875,3.46875 -0.8325,5.68875 -1.80375,11.9325 -0.13875,0.69375 0.2775,0.8325 0.555,0.13875 0.97125,-0.41625 11.51625,-15.54 21.22875,-11.655 5.55,1.665 8.6025,6.52125 3.0525,4.7175 2.08125,10.2675 -0.8325,4.44 -3.46875,8.0475 -0.41625,0.555 -0.13875,1.24875 0.2775,0.555 0.8325,0.555 10.2675,-0.69375 18.5925,-1.80375 8.46375,-1.24875 18.87,-3.6075 10.545,-2.4975 19.7025,-7.07625 9.29625,-4.57875 16.095,-10.96125 1.11,-1.11 2.4975,-0.97125 z m -130.98,90.04875 q 4.30125,-11.9325 6.79875,-24.28125 -4.30125,11.9325 -6.79875,24.28125 z m 317.45998,-97.68 q -5.8275,10.545 -16.51125,21.3675 -10.545,10.68375 -23.0325,19.28625 -12.34875,8.6025 -26.50125,14.01375 -14.1525,5.55 -26.085,5.55 h -1.3875 q -10.68375,0.13875 -19.7025,-5.68875 -9.01875,-5.8275 -13.45875,-15.54 -10.96125,-22.61625 7.90875,-48.0075 11.655,-15.67875 31.77375,-28.86 20.2575,-13.18125 39.6825,-19.28625 1.3875,-0.41625 1.3875,-1.9425 0.13875,-1.52625 -1.24875,-2.08125 -16.51125,-7.4925 -20.95125,-17.205 -3.74625,-8.0475 0.555,-15.8175 4.995,-9.29625 16.9275,-13.0425 11.9325,-3.74625 24.83625,-2.08125 12.765,1.80375 21.50625,7.90875 8.88,6.105 10.8225,14.7075 0.555,2.08125 -1.11,3.6075 -1.52625,1.3875 -3.6075,0.69375 -1.9425,-0.69375 -2.35875,-2.775 -1.3875,-6.24375 -8.6025,-10.8225 -7.07625,-4.57875 -17.62125,-6.105 -10.68375,-1.3875 -20.67375,1.3875 -9.85125,2.775 -13.5975,9.99 -2.775,4.44 -0.555,9.29625 1.80375,4.02375 6.9375,7.77 5.2725,3.6075 11.655,6.24375 6.52125,2.63625 11.79375,4.44 5.41125,1.665 9.7125,2.63625 1.3875,0.2775 2.22,1.52625 0.8325,1.24875 0.555,2.775 -0.2775,1.3875 -1.52625,2.22 -1.24875,0.8325 -2.63625,0.555 -6.79875,-1.11 -18.73125,2.22 -11.79375,3.33 -24.6975,9.7125 -12.90375,6.24375 -25.8075,16.095 -12.765,9.85125 -20.8125,20.67375 -16.23375,21.78375 -7.07625,40.37625 3.46875,7.90875 10.68375,12.4875 7.35375,4.7175 15.95625,4.57875 10.8225,0.41625 24.1425,-4.7175 13.32,-5.13375 25.11375,-13.18125 11.9325,-8.18625 22.06125,-18.45375 10.2675,-10.2675 15.67875,-19.98 8.6025,-15.40125 2.91375,-24.00375 -2.22,-3.0525 -5.8275,-4.1625 -3.6075,-1.24875 -7.35375,-0.13875 -7.77,1.11 -17.205,6.9375 -9.29625,5.8275 -17.06625,14.7075 -7.77,8.74125 -10.40625,17.4825 -1.9425,5.41125 -0.555,10.96125 1.52625,5.41125 5.8275,9.01875 1.665,1.3875 1.24875,3.46875 -0.41625,2.08125 -2.4975,2.775 -1.9425,0.69375 -3.46875,-0.69375 -5.96625,-4.995 -8.0475,-12.4875 -2.08125,-7.63125 0.555,-14.985 2.775,-9.7125 10.96125,-19.425 8.18625,-9.85125 18.87,-16.65 10.8225,-6.9375 20.8125,-8.325 5.68875,-1.3875 11.23875,0.69375 5.68875,2.08125 9.1575,6.79875 7.90875,12.21 -2.775,31.49625 z m 139.02739,12.07125 q 1.52625,0 2.4975,1.11 1.11,1.11 1.11,2.63625 0,1.3875 -1.11,2.4975 -6.3825,6.24375 -14.29125,11.3775 -7.90875,5.13375 -15.67875,8.325 -7.63125,3.0525 -15.67875,5.13375 -7.90875,1.9425 -14.29125,1.80375 -6.3825,0 -11.51625,-1.24875 -7.4925,-2.63625 -13.0425,-8.18625 -5.41125,-5.68875 -7.77,-13.18125 -0.41625,-1.24875 -1.80375,-1.3875 -1.24875,-0.13875 -1.9425,0.97125 -16.65,23.5875 -27.61125,23.5875 -0.69375,0 -1.3875,-0.13875 -3.33,-0.41625 -5.96625,-2.35875 -2.4975,-2.08125 -3.6075,-5.2725 -2.08125,-6.9375 0,-14.985 1.9425,-8.0475 5.55,-12.4875 9.85125,-11.3775 19.425,-8.6025 3.6075,1.11 6.24375,4.02375 2.775,2.775 3.885,6.52125 0.13875,1.3875 -0.8325,2.63625 -0.8325,1.24875 -2.22,1.3875 -1.52625,0.2775 -2.775,-0.555 -1.11,-0.97125 -1.3875,-2.35875 -1.52625,-3.6075 -5.41125,-4.7175 -4.85625,-1.11 -11.3775,6.3825 -6.24375,9.29625 -4.30125,20.2575 0.8325,2.775 3.74625,2.91375 3.0525,0.41625 9.29625,-5.2725 6.3825,-5.68875 14.84625,-18.17625 1.3875,-2.08125 2.775,-4.30125 1.52625,-2.4975 1.24875,-5.41125 -0.555,-9.01875 0.2775,-18.0375 1.24875,-14.43 5.55,-28.305 4.44,-13.875 11.23875,-23.44875 6.9375,-9.7125 14.43,-10.68375 4.1625,-0.69375 6.3825,2.91375 2.91375,4.7175 -0.8325,18.5925 -3.74625,13.73625 -11.23875,29.6925 -7.35375,15.8175 -16.095,30.66375 -1.80375,3.0525 -1.11,6.52125 4.02375,19.425 18.0375,23.865 4.1625,0.97125 9.435,1.11 5.41125,0 12.4875,-1.80375 7.215,-1.80375 14.1525,-4.57875 7.07625,-2.775 14.56875,-7.63125 7.4925,-4.85625 13.5975,-10.8225 0.97125,-0.97125 2.4975,-0.97125 z m -85.88625,-24.42 q -0.2775,3.74625 0.555,3.74625 0.555,0 1.3875,-1.52625 20.67375,-36.63 22.61625,-54.25125 0.13875,-1.52625 -1.11,-2.22 -1.24875,-0.69375 -2.35875,0.13875 -6.9375,4.995 -13.18125,20.39625 -6.24375,15.40101 -7.90875,33.71625 z m 183.28871,20.8125 q 1.11,0.97125 1.11,2.4975 0.13875,1.52625 -0.97125,2.4975 -9.435,9.99 -23.17125,11.51625 -13.5975,1.3875 -24.975,-6.24375 -2.4975,-1.665 -4.7175,0.41625 -8.18625,8.0475 -15.2625,16.9275 -0.69375,0.8325 -0.8325,1.80375 -3.74625,22.33875 -11.3775,43.845 -7.4925,21.645 -14.1525,26.085 -1.9425,1.3875 -4.1625,1.3875 -2.91375,0 -4.85625,-2.08125 -4.57875,-4.85625 -4.02375,-11.51625 0.2775,-11.1 9.1575,-27.75 8.88,-16.51125 22.06125,-33.16125 0.69375,-0.97125 0.8325,-2.08125 0.97125,-6.105 1.24875,-11.1 -8.88,17.205 -17.4825,19.00875 -6.105,1.11 -9.99,-3.74625 -1.80375,-1.9425 -2.22,-5.13375 -0.41625,-3.33 0.2775,-6.52125 0.555,-3.33 1.9425,-6.66 3.885,-10.40625 12.765,-17.205 8.88,-6.79875 19.98,-7.77 1.52625,-0.13875 2.63625,0.8325 1.24875,0.97125 1.24875,2.4975 0.13875,1.52625 -0.8325,2.775 -0.97125,1.11 -2.4975,1.11 -9.01875,0.97125 -16.23375,6.52125 -7.07625,5.41125 -10.2675,13.73625 -2.775,5.2725 -1.3875,10.96125 1.665,1.80375 3.19125,1.3875 4.02375,-0.69375 9.29625,-9.435 5.2725,-8.74125 8.74125,-18.315 0.8325,-2.35875 3.33,-2.35875 2.4975,0 3.46875,2.22 1.3875,4.30125 1.3875,8.88 0,1.3875 0.2775,2.4975 0.2775,1.11 0.8325,2.08125 0.69375,0.97125 1.9425,0.41625 1.3875,-0.555 3.33,-2.63625 0.8325,-0.97125 4.85625,-4.85625 1.9425,-1.80375 4.57875,-1.9425 2.775,-0.13875 4.995,1.52625 9.1575,7.35375 20.8125,6.66 11.79375,-0.8325 19.98,-9.435 0.97125,-1.11 2.4975,-1.11 1.52625,-0.13875 2.63625,0.97125 z m -92.4075,84.6375 q 4.57875,-9.1575 10.12875,-25.8075 5.68875,-16.51125 3.885,-17.205 -1.3875,-0.555 -6.66,8.6025 -5.13375,9.1575 -9.99,20.67375 -4.85625,11.51625 -4.995,16.3725 -0.13875,5.55 1.665,6.105 1.11,0.2775 1.9425,-1.11 0.97125,-1.3875 3.19125,-5.96625 0.555,-0.97125 0.8325,-1.665 z m 201.18759,-85.1925 q 1.52625,0.13875 2.4975,1.3875 0.97125,1.11 0.8325,2.63625 -0.13875,1.52625 -1.3875,2.4975 -2.08125,1.665 -5.13375,3.885 -3.0525,2.22 -11.79375,7.4925 -8.74125,5.13375 -17.4825,9.01875 -8.6025,3.885 -20.8125,7.07625 -12.21,3.19125 -23.31,3.19125 -14.1525,0.13875 -27.195,-5.13375 -4.1625,-1.665 -7.07625,-3.885 -2.775,-2.35875 -4.1625,-4.44 -1.3875,-2.22 -1.9425,-4.57875 -0.69375,-2.4975 -0.555,-4.30125 0,-1.80375 0.41625,-3.6075 1.52625,-6.52125 7.215,-12.90375 5.68875,-6.3825 12.62625,-9.99 7.07625,-3.6075 12.62625,-3.33 3.74625,0 6.3825,2.63625 2.775,2.63625 3.0525,6.52125 0.69375,6.66 -7.4925,12.07125 -11.79375,7.35375 -25.8075,6.52125 -0.69375,-0.13875 -1.24875,0.2775 -0.555,0.41625 -0.41625,1.11 -0.97125,7.07625 9.1575,11.1 9.01875,3.74625 19.425,4.44 10.40625,0.555 19.425,-1.11 9.01875,-1.665 18.45375,-5.13375 9.435,-3.46875 16.095,-6.9375 6.79875,-3.6075 13.0425,-7.4925 6.3825,-4.02375 8.6025,-5.68875 2.35875,-1.665 3.33,-2.4975 1.24875,-0.97125 2.63625,-0.8325 z m -105.31125,4.30125 q -1.80375,2.4975 1.52625,2.22 5.8275,-0.41625 14.84625,-4.995 1.3875,-0.8325 2.35875,-1.3875 4.30125,-2.91375 4.02375,-5.2725 -0.13875,-1.52625 -0.69375,-1.9425 -0.555,-0.555 -1.80375,-0.69375 -4.44,-0.2775 -10.40625,3.19125 -5.8275,3.46875 -9.85125,8.88 z"
       id="sharp-edge"
       aria-label="Sharp Edge" />
    <path
       class="animate-path"
       pathLength="1"
       style="fill-opacity:0"
       d="m 170.64065,347.17443 -1.58956,-3.33333 h -4.22008 c -5.33144,0 -6.56976,-0.78156 -6.56318,-4.14235 0.005,-2.54799 0.83992,-4.18692 5.46236,-10.7223 l 1.96762,-2.7819 0.70155,-7.34458 0.70155,-7.34458 2.09659,-3.39235 2.09659,-3.39235 3.38537,-1.60646 c 1.86195,-0.88356 4.94975,-1.60646 6.86179,-1.60646 h 3.47643 l 1.28475,1.54803 1.28475,1.54803 -1.5767,3.20197 c -0.86719,1.76108 -4.99023,6.87501 -9.16231,11.36429 l -7.58561,8.16233 v 3.52258 c 0,1.93741 0.43887,4.67686 0.97525,6.08767 l 0.97525,2.5651 h 1.65672 c 0.91119,0 3.22043,-0.96643 5.13164,-2.14762 l 3.47492,-2.14762 -0.52953,-3.26308 c -0.29123,-1.79469 -0.26824,-3.52436 0.0511,-3.8437 1.13656,-1.13656 3.26466,1.69081 3.26466,4.33737 v 2.69046 l -2.75001,2.57293 c -1.5125,1.41512 -4.24897,3.32972 -6.08105,4.25469 l -3.33105,1.68175 0.69451,1.68241 c 0.38197,0.92532 0.92093,2.46991 1.19768,3.43241 l 0.50318,1.75 h -1.13281 c -0.62305,0 -1.84811,-1.5 -2.72237,-3.33334 z m -3.1221,-8.66666 c -0.13421,-1.375 -0.51333,-3.625 -0.84251,-5 l -0.59849,-2.5 -2.9075,3.46222 c -4.27549,5.09123 -3.62862,7.1719 2.09251,6.73061 l 2.5,-0.19283 z m 9.64523,-23.60131 c 7.23664,-7.74892 8.34456,-9.98342 5.49267,-11.07779 l -1.60612,-0.61632 -4.23779,2.05887 -4.23778,2.05888 -1.61443,3.40215 c -0.88794,1.87118 -1.91569,5.28616 -2.28391,7.58883 l -0.66947,4.18668 h 1.02902 c 0.56597,0 4.22348,-3.42058 8.12781,-7.6013 z"
       id="ampersand" />
  </g>
</svg>
